<svg viewBox="0 0 80 80" fill="none" xmlns="http://www.w3.org/2000/svg">
    <defs>
        <filter id="glow" x="-100%" y="-100%" width="300%" height="300%">
            <feGaussianBlur stdDeviation="3" result="coloredBlur"/>
            <feMerge>
                <feMergeNode in="coloredBlur"/>
                <feMergeNode in="coloredBlur"/>
                <feMergeNode in="SourceGraphic"/>
            </feMerge>
        </filter>
        <filter id="sparkle-glow" x="-200%" y="-200%" width="500%" height="500%">
            <feGaussianBlur stdDeviation="1.5" result="blur"/>
            <feMerge>
                <feMergeNode in="blur"/>
                <feMergeNode in="blur"/>
                <feMergeNode in="SourceGraphic"/>
            </feMerge>
        </filter>
    </defs>
    <!-- Main orbital ring with glow -->
    <ellipse cx="40" cy="40" rx="36" ry="14" stroke="#e0be6a" stroke-width="2" fill="none" transform="rotate(-30 40 40)" filter="url(#glow)"/>
    <!-- Shimmer layer -->
    <ellipse cx="40" cy="40" rx="36" ry="14" stroke="#fff8e7" stroke-width="1" fill="none" transform="rotate(-30 40 40)" opacity="0.3" filter="url(#glow)"/>
    <!-- Sparkle particles -->
    <circle cx="12" cy="28" r="1.5" fill="#fffdf5" filter="url(#sparkle-glow)"/>
    <circle cx="68" cy="52" r="1.5" fill="#fffdf5" filter="url(#sparkle-glow)"/>
    <circle cx="25" cy="58" r="1.2" fill="#fffdf5" filter="url(#sparkle-glow)"/>
    <circle cx="55" cy="22" r="1.2" fill="#fffdf5" filter="url(#sparkle-glow)"/>
    <circle cx="40" cy="16" r="1" fill="#fffdf5" filter="url(#sparkle-glow)"/>
    <circle cx="40" cy="64" r="1" fill="#fffdf5" filter="url(#sparkle-glow)"/>
    <!-- B letterform -->
    <path d="M 22 15 L 22 65 M 22 15 L 42 15 C 54 15 54 38 42 38 L 22 38 M 22 38 L 45 38 C 58 38 58 65 45 65 L 22 65" 
          stroke="#e0be6a" stroke-width="4.5" fill="none" stroke-linecap="round" stroke-linejoin="round"/>
</svg>
